<?xml version="1.0" encoding="UTF-8" standalone="no"?>
<!DOCTYPE svg PUBLIC "-//W3C//DTD SVG 1.1//EN"
 "http://www.w3.org/Graphics/SVG/1.1/DTD/svg11.dtd">
<!-- Generated by graphviz version 2.46.1 (20210213.1702)
 -->
<!-- Pages: 1 -->
<svg width="328pt" height="164pt"
 viewBox="0.00 0.00 328.23 164.47" xmlns="http://www.w3.org/2000/svg" xmlns:xlink="http://www.w3.org/1999/xlink">
<g id="graph0" class="graph" transform="scale(1 1) rotate(0) translate(4 160.47)">
<polygon fill="white" stroke="transparent" points="-4,4 -4,-160.47 324.23,-160.47 324.23,4 -4,4"/>
<!-- &#45;1 -->
<g id="node1" class="node">
<title>&#45;1</title>
<polygon fill="lightgray" stroke="black" points="274.38,-156.47 250.38,-156.47 250.38,-138.47 274.38,-138.47 274.38,-156.47"/>
<text text-anchor="middle" x="262.38" y="-145.27" font-family="Times New Roman,serif" font-size="9.00">&#45;1</text>
</g>
<!-- 0 -->
<g id="node5" class="node">
<title>0</title>
<ellipse fill="lightblue" stroke="black" cx="102.38" cy="-14.85" rx="14.7" ry="14.7"/>
<text text-anchor="middle" x="102.38" y="-12.65" font-family="Times New Roman,serif" font-size="9.00">0</text>
</g>
<!-- &#45;1&#45;&gt;0 -->
<g id="edge1" class="edge">
<title>&#45;1&#45;&gt;0</title>
<path fill="none" stroke="red" stroke-width="0.19" stroke-dasharray="1,5" d="M250.07,-146.5C222.61,-145.86 156.05,-140.27 121.38,-102.47 105.92,-85.6 102.01,-59.12 101.45,-39.87"/>
<polygon fill="red" stroke="red" stroke-width="0.19" points="104.95,-39.76 101.43,-29.77 97.95,-39.77 104.95,-39.76"/>
</g>
<!-- 1 -->
<g id="node6" class="node">
<title>1</title>
<ellipse fill="lightblue" stroke="black" cx="224.38" cy="-14.85" rx="14.7" ry="14.7"/>
<text text-anchor="middle" x="224.38" y="-12.65" font-family="Times New Roman,serif" font-size="9.00">1</text>
</g>
<!-- &#45;1&#45;&gt;1 -->
<g id="edge2" class="edge">
<title>&#45;1&#45;&gt;1</title>
<path fill="none" stroke="green" stroke-width="0.13" d="M260.01,-138.3C254.34,-118.8 239.84,-68.96 231.18,-39.22"/>
<polygon fill="green" stroke="green" stroke-width="0.13" points="234.44,-37.89 228.29,-29.27 227.72,-39.85 234.44,-37.89"/>
</g>
<!-- 9 -->
<g id="node7" class="node">
<title>9</title>
<ellipse fill="white" stroke="black" cx="305.38" cy="-84.08" rx="14.7" ry="14.7"/>
<text text-anchor="middle" x="305.38" y="-81.88" font-family="Times New Roman,serif" font-size="9.00">9</text>
</g>
<!-- &#45;1&#45;&gt;9 -->
<g id="edge10" class="edge">
<title>&#45;1&#45;&gt;9</title>
<path fill="none" stroke="green" stroke-width="0.32" d="M268.01,-138.44C273.9,-130.03 283.38,-116.49 291.33,-105.15"/>
<polygon fill="green" stroke="green" stroke-width="0.32" points="294.39,-106.87 297.27,-96.67 288.66,-102.86 294.39,-106.87"/>
</g>
<!-- &#45;2 -->
<g id="node2" class="node">
<title>&#45;2</title>
<polygon fill="lightgray" stroke="black" points="154.38,-93.08 130.38,-93.08 130.38,-75.08 154.38,-75.08 154.38,-93.08"/>
<text text-anchor="middle" x="142.38" y="-81.88" font-family="Times New Roman,serif" font-size="9.00">&#45;2</text>
</g>
<!-- &#45;2&#45;&gt;0 -->
<g id="edge3" class="edge">
<title>&#45;2&#45;&gt;0</title>
<path fill="none" stroke="green" stroke-width="0.9" stroke-dasharray="1,5" d="M137.48,-74.84C131.91,-65.47 122.59,-49.82 114.96,-36.99"/>
<polygon fill="green" stroke="green" stroke-width="0.9" points="117.9,-35.08 109.78,-28.28 111.88,-38.66 117.9,-35.08"/>
</g>
<!-- &#45;2&#45;&gt;1 -->
<g id="edge4" class="edge">
<title>&#45;2&#45;&gt;1</title>
<path fill="none" stroke="red" stroke-width="0.63" d="M152.2,-74.93C155.73,-72.02 159.73,-68.71 163.38,-65.7 177.32,-54.23 193.1,-41.34 205.12,-31.54"/>
<polygon fill="red" stroke="red" stroke-width="0.63" points="207.58,-34.05 213.12,-25.02 203.16,-28.62 207.58,-34.05"/>
</g>
<!-- &#45;3 -->
<g id="node3" class="node">
<title>&#45;3</title>
<polygon fill="lightgray" stroke="black" points="196.38,-93.08 172.38,-93.08 172.38,-75.08 196.38,-75.08 196.38,-93.08"/>
<text text-anchor="middle" x="184.38" y="-81.88" font-family="Times New Roman,serif" font-size="9.00">&#45;3</text>
</g>
<!-- &#45;3&#45;&gt;0 -->
<g id="edge5" class="edge">
<title>&#45;3&#45;&gt;0</title>
<path fill="none" stroke="green" stroke-width="0.11" d="M174.57,-74.93C171.04,-72.02 167.04,-68.71 163.38,-65.7 149.45,-54.23 133.67,-41.34 121.65,-31.54"/>
<polygon fill="green" stroke="green" stroke-width="0.11" points="123.61,-28.62 113.65,-25.02 119.18,-34.05 123.61,-28.62"/>
</g>
<!-- &#45;3&#45;&gt;1 -->
<g id="edge6" class="edge">
<title>&#45;3&#45;&gt;1</title>
<path fill="none" stroke="green" stroke-width="0.49" stroke-dasharray="1,5" d="M189.29,-74.84C194.86,-65.47 204.18,-49.82 211.81,-36.99"/>
<polygon fill="green" stroke="green" stroke-width="0.49" points="214.88,-38.66 216.99,-28.28 208.87,-35.08 214.88,-38.66"/>
</g>
<!-- &#45;4 -->
<g id="node4" class="node">
<title>&#45;4</title>
<polygon fill="lightgray" stroke="black" points="76.38,-156.47 52.38,-156.47 52.38,-138.47 76.38,-138.47 76.38,-156.47"/>
<text text-anchor="middle" x="64.38" y="-145.27" font-family="Times New Roman,serif" font-size="9.00">&#45;4</text>
</g>
<!-- &#45;4&#45;&gt;0 -->
<g id="edge7" class="edge">
<title>&#45;4&#45;&gt;0</title>
<path fill="none" stroke="red" stroke-width="0.23" stroke-dasharray="1,5" d="M66.76,-138.3C72.43,-118.8 86.93,-68.96 95.59,-39.22"/>
<polygon fill="red" stroke="red" stroke-width="0.23" points="99.05,-39.85 98.48,-29.27 92.33,-37.89 99.05,-39.85"/>
</g>
<!-- &#45;4&#45;&gt;1 -->
<g id="edge8" class="edge">
<title>&#45;4&#45;&gt;1</title>
<path fill="none" stroke="red" stroke-width="0.21" d="M76.7,-146.5C104.16,-145.86 170.72,-140.27 205.38,-102.47 220.85,-85.6 224.76,-59.12 225.32,-39.87"/>
<polygon fill="red" stroke="red" stroke-width="0.21" points="228.82,-39.77 225.33,-29.77 221.82,-39.76 228.82,-39.77"/>
</g>
<!-- 57 -->
<g id="node8" class="node">
<title>57</title>
<ellipse fill="white" stroke="black" cx="18.38" cy="-84.08" rx="18.27" ry="18.27"/>
<text text-anchor="middle" x="18.38" y="-81.88" font-family="Times New Roman,serif" font-size="9.00">57</text>
</g>
<!-- &#45;4&#45;&gt;57 -->
<g id="edge11" class="edge">
<title>&#45;4&#45;&gt;57</title>
<path fill="none" stroke="green" stroke-width="0.11" d="M58.37,-138.44C52.53,-130.65 43.38,-118.44 35.31,-107.67"/>
<polygon fill="green" stroke="green" stroke-width="0.11" points="37.95,-105.36 29.16,-99.46 32.35,-109.56 37.95,-105.36"/>
</g>
<!-- 9&#45;&gt;1 -->
<g id="edge9" class="edge">
<title>9&#45;&gt;1</title>
<path fill="none" stroke="green" stroke-width="0.19" stroke-dasharray="1,5" d="M294.46,-74.02C281.42,-63.19 259.37,-44.89 243.49,-31.71"/>
<polygon fill="green" stroke="green" stroke-width="0.19" points="245.32,-28.68 235.39,-24.99 240.85,-34.07 245.32,-28.68"/>
</g>
<!-- 57&#45;&gt;0 -->
<g id="edge12" class="edge">
<title>57&#45;&gt;0</title>
<path fill="none" stroke="green" stroke-width="0.18" d="M32.26,-71.98C46.17,-60.84 67.72,-43.6 83.26,-31.16"/>
<polygon fill="green" stroke="green" stroke-width="0.18" points="85.56,-33.8 91.18,-24.81 81.19,-28.33 85.56,-33.8"/>
</g>
</g>
</svg>
